<svg width="128" height="128" viewBox="0 0 128 128" fill="none" xmlns="http://www.w3.org/2000/svg">
<path d="M64 128C99.3432 128 128 99.3432 128 64C128 28.6569 99.3432 0 64 0C28.6569 0 0 28.6569 0 64C0 99.3432 28.6569 128 64 128Z" fill="#2E7D32"/>
<path d="M40.7969 65.2422L49.0547 65.2422C49.8516 65.2422 50.5039 64.5938 50.5039 63.7969C50.5039 63.0001 49.8516 62.3477 49.0547 62.3477L40.7969 62.3477C39.9961 62.3477 39.3477 63.0001 39.3477 63.7969C39.3477 64.5938 39.9961 65.2422 40.7969 65.2422Z" fill="white"/>
<path d="M40.7969 80.3945L49.0547 80.3945C49.8516 80.3945 50.5039 79.7422 50.5039 78.9453C50.5039 78.1484 49.8516 77.4961 49.0547 77.4961L40.7969 77.4961C39.9961 77.4961 39.3477 78.1484 39.3477 78.9453C39.3477 79.7422 39.9961 80.3945 40.7969 80.3945Z" fill="white"/>
<path d="M52.6484 50.5C52.6484 51.2969 53.2969 51.9453 54.0938 51.9453L60.4375 51.9453C61.2344 51.9453 61.8828 51.2969 61.8828 50.5C61.8828 49.7031 61.2344 49.0547 60.4375 49.0547L54.0938 49.0547C53.2969 49.0547 52.6484 49.7031 52.6484 50.5Z" fill="white"/>
<path d="M65.1445 50.5C65.1445 51.2969 65.793 51.9453 66.5898 51.9453L72.9336 51.9453C73.7305 51.9453 74.3789 51.2969 74.3789 50.5C74.3789 49.7031 73.7305 49.0547 72.9336 49.0547L66.5898 49.0547C65.793 49.0547 65.1445 49.7031 65.1445 50.5Z" fill="white"/>
<path d="M52.6484 78.9453C52.6484 79.7422 53.2969 80.3945 54.0938 80.3945L60.4375 80.3945C61.2344 80.3945 61.8828 79.7422 61.8828 78.9453C61.8828 78.1484 61.2344 77.4961 60.4375 77.4961L54.0938 77.4961C53.2969 77.4961 52.6484 78.1484 52.6484 78.9453Z" fill="white"/>
<path d="M65.1445 78.9453C65.1445 79.7422 65.793 80.3945 66.5898 80.3945L72.9336 80.3945C73.7305 80.3945 74.3789 79.7422 74.3789 78.9453C74.3789 78.1484 73.7305 77.4961 72.9336 77.4961L66.5898 77.4961C65.793 77.4961 65.1445 78.1484 65.1445 78.9453Z" fill="white"/>
<path d="M76.3555 62.3477L84.6133 62.3477C85.4102 62.3477 86.0625 63.0001 86.0625 63.7969C86.0625 64.5938 85.4102 65.2422 84.6133 65.2422L76.3555 65.2422C75.5586 65.2422 74.9102 64.5938 74.9102 63.7969C74.9102 63.0001 75.5586 62.3477 76.3555 62.3477Z" fill="white"/>
<path d="M76.3555 77.4961L84.6133 77.4961C85.4102 77.4961 86.0625 78.1484 86.0625 78.9453C86.0625 79.7422 85.4102 80.3945 84.6133 80.3945L76.3555 80.3945C75.5586 80.3945 74.9102 79.7422 74.9102 78.9453C74.9102 78.1484 75.5586 77.4961 76.3555 77.4961Z" fill="white"/>
<path d="M88.3945 50.5C88.3945 51.2969 89.043 51.9453 89.8398 51.9453L96.1836 51.9453C96.9805 51.9453 97.6289 51.2969 97.6289 50.5C97.6289 49.7031 96.9805 49.0547 96.1836 49.0547L89.8398 49.0547C89.043 49.0547 88.3945 49.7031 88.3945 50.5Z" fill="white"/>
<path d="M88.3945 78.9453C88.3945 79.7422 89.043 80.3945 89.8398 80.3945L96.1836 80.3945C96.9805 80.3945 97.6289 79.7422 97.6289 78.9453C97.6289 78.1484 96.9805 77.4961 96.1836 77.4961L89.8398 77.4961C89.043 77.4961 88.3945 78.1484 88.3945 78.9453Z" fill="white"/>
</svg>